<svg width="161" height="31" viewBox="0 0 161 31" fill="none" xmlns="http://www.w3.org/2000/svg">
<g filter="url(#filter0_d)">
<path d="M17.7 7.33C17.7 1.93 14.34 0.399999 10.92 0.399999H4.68V22H9V17.02C9.63 16.78 10.5 16.48 11.43 16.03C12.42 18.13 13.14 20.35 13.5 22H18.06C17.52 19.33 16.44 16.48 14.94 13.69C16.5 12.22 17.7 10.18 17.7 7.33ZM13.05 7.48C13.05 11.17 10.47 12.16 9.06 12.76V4.18H10.29C11.85 4.18 13.05 4.96 13.05 7.48ZM28.7289 12.61H34.8489V8.77H28.7289V4.27H36.0489V0.399999H24.4689V15.01C24.4689 20.5 25.9089 22.06 31.1289 22.06H36.4389V18.1H31.2189C29.3589 18.1 28.7289 17.59 28.7289 14.86V12.61ZM57.7386 17.89C56.0586 18.25 54.6186 18.4 53.5986 18.4C47.4786 18.4 46.3686 13.78 46.3686 10.42C46.3686 5.77 48.2286 4.15 50.4786 4.15C52.5486 4.15 53.7186 5.65 53.7186 8.32V8.74H57.7386V8.2C57.7386 3.07 55.5786 0.0999994 50.5086 0.0999994C45.6786 0.0999994 41.9586 2.89 41.9586 10.51C41.9586 17.71 45.7686 22.3 52.4886 22.3C53.8686 22.3 56.0586 22.09 57.7386 21.64V17.89ZM68.6039 12.61H74.7239V8.77H68.6039V4.27H75.9239V0.399999H64.3439V15.01C64.3439 20.5 65.7839 22.06 71.0039 22.06H76.3139V18.1H71.0939C69.2339 18.1 68.6039 17.59 68.6039 14.86V12.61ZM95.8973 7.42C95.8973 1.99 92.5673 0.399999 89.1473 0.399999H82.9073V22H87.1973V17.02C89.6573 16.21 95.8973 13.81 95.8973 7.42ZM91.2473 7.57C91.2473 11.38 88.5173 12.49 87.2573 12.97V4.18H88.4873C90.0773 4.18 91.2473 5.11 91.2473 7.57ZM100.701 4.42H105.171V22H109.461V4.42H113.901V0.399999H100.701V4.42ZM136.841 11.08C136.841 4.24 133.511 0.0999994 127.781 0.0999994C122.021 0.0999994 118.691 4.3 118.691 11.14C118.691 17.98 122.021 22.3 127.781 22.3C133.511 22.3 136.841 17.95 136.841 11.08ZM132.431 11.11C132.431 15.16 130.841 18.43 127.781 18.43C124.691 18.43 123.101 15.16 123.101 11.11C123.101 7.06 124.691 3.97 127.781 3.97C130.841 3.97 132.431 7.06 132.431 11.11ZM156.442 7.33C156.442 1.93 153.082 0.399999 149.662 0.399999H143.422V22H147.742V17.02C148.372 16.78 149.242 16.48 150.172 16.03C151.162 18.13 151.882 20.35 152.242 22H156.802C156.262 19.33 155.182 16.48 153.682 13.69C155.242 12.22 156.442 10.18 156.442 7.33ZM151.792 7.48C151.792 11.17 149.212 12.16 147.802 12.76V4.18H149.032C150.592 4.18 151.792 4.96 151.792 7.48Z" fill="#234CAD"/>
</g>
<defs>
<filter id="filter0_d" x="0.680054" y="0.0999985" width="160.122" height="30.2" filterUnits="userSpaceOnUse" color-interpolation-filters="sRGB">
<feFlood flood-opacity="0" result="BackgroundImageFix"/>
<feColorMatrix in="SourceAlpha" type="matrix" values="0 0 0 0 0 0 0 0 0 0 0 0 0 0 0 0 0 0 127 0"/>
<feOffset dy="4"/>
<feGaussianBlur stdDeviation="2"/>
<feColorMatrix type="matrix" values="0 0 0 0 0.137255 0 0 0 0 0.298039 0 0 0 0 0.678431 0 0 0 0.16 0"/>
<feBlend mode="normal" in2="BackgroundImageFix" result="effect1_dropShadow"/>
<feBlend mode="normal" in="SourceGraphic" in2="effect1_dropShadow" result="shape"/>
</filter>
</defs>
</svg>
